<?xml version="1.0" encoding="iso-8859-1"?>
<!-- Generator: Adobe Illustrator 23.0.3, SVG Export Plug-In . SVG Version: 6.00 Build 0)  -->
<svg version="1.1" id="Layer_1" xmlns="http://www.w3.org/2000/svg" xmlns:xlink="http://www.w3.org/1999/xlink" x="0px" y="0px"
	 viewBox="0 0 157.051 287.751" enable-background="new 0 0 157.051 287.751" xml:space="preserve">
<path fill="#060705" d="M130.814,78.423c1.985-2.216,4.06-4.359,5.93-6.667c1.838-2.27,2.715-1.723,3.564,0.753
	c2.319,6.766,3.791,13.718,4.832,20.775c2.259,6.307,1.348,12.782,0.732,19.163c-0.838,8.668-3.754,16.789-7.546,24.592
	c-2.219,4.168-4.724,8.151-7.91,11.669c-4.376,5.794-9.82,10.552-15.069,15.499c-0.924,1.141-2.41,1.676-3.393,3.191
	c1.33-1.1,2.358-2.093,3.399-3.073c5.154-4.901,10.408-9.702,14.96-15.197c2.831-3.95,7.076-6.366,10.481-9.701
	c3.295-3.065,7.054-5.536,10.543-8.351c1.291-1.041,2.854-2.2,4.508-1.212c1.418,0.847,1.318,2.616,1.038,4.105
	c-1.244,6.62-0.636,13.62-4.039,19.798c-4.319,13.619-10.522,26.199-20.133,36.946c-8.093,9.05-17.535,15.823-29.775,17.918
	c-1.78,0.305-3.259,0.749-3.814,2.627c-0.704,2.382,1.415,2.811,2.739,3.47c3.906,1.944,2.903,3.317-0.098,5.266
	c-6.807,4.423-13.964,8.424-18.514,15.648c-1.209,1.92-2.106,3.581-2.083,5.873c0.08,8.161,0.023,16.323,0.023,24.485
	c0,1.979-0.388,4.138,2.649,4.364c1.729,0.129,1.968,1.514,1.964,2.939c-0.001,0.333,0.001,0.667,0.016,0.999
	c0.59,13.381,0.59,13.404-12.655,13.428c-10.66,0.019-21.321-0.001-31.981-0.073c-1.77-0.012-3.703,0.54-5.246-0.917
	c-1.096-5.516-0.328-11.002-0.484-16.352c-0.331,0.064-1.545-0.563-2.509,0.378c-2.264,0.633-4.527,1.266-6.791,1.9
	c-1.784-5.48-0.16-11.139-0.851-16.684c-0.157-1.264,0.96-2.051,1.932-2.725c0.963-0.668,2.044-1.113,3.112-1.585
	c8.228-3.637,9.7-6.566,8.072-15.522c-0.438-2.408-2.016-3.718-3.83-4.959c-4.811-3.291-9.872-6.21-14.537-9.719
	c-4.598-3.459-4.548-5.342,0.347-8.499c4.62-2.979,9.444-5.627,14.076-8.592c2.586-1.655,3.713-3.829,4.212-6.902
	c1.514-9.339,0.726-18.591-0.298-27.871c-0.267-2.417-1.538-4.357-2.781-6.339c-5.615-8.951-9.775-18.555-12.676-28.702
	c-1.427-4.992-0.116-6.395,5.162-5.669c1.319,0.181,2.622,0.477,3.922,0.771c6.522,1.475,6.409,1.473,6.547-5.453
	c0.08-3.988-0.85-7.463-3.136-10.786c-5.232-7.606-8.862-16.006-11.582-24.813c-1.01-5.502-0.586-5.982,5.236-5.965
	c1.429,0.3,2.84,0.815,4.314,0.826c1.648,0.012,3.744,1.551,4.815-0.75c0.956-2.054-0.242-3.768-1.774-5.179
	c-9.797-8.239-18.523-17.411-24.969-28.58C6.52,41.455,3.491,33.083,0.672,24.642c-1.346-4.03-0.696-5.293,2.199-5.832l-0.046-0.024
	c3.642,0.859,7.626-0.034,11.009,2.15c6.272,2.298,12.544,4.596,18.817,6.895c0.166,0.003,0.345-0.033,0.497,0.016
	c5.944,1.941,5.943,1.942,6.923-3.976c-0.053-3.194,1.28-5.611,3.625-7.822c4.965-4.681,9.762-9.548,14.478-14.482
	c1.925-2.014,3.271-2.144,5.269-0.049c5.056,5.3,10.203,10.524,15.53,15.549c3.863,3.644,1.373,8.23,2.355,12.272
	c1.12,2.338,1.087,4.842,1.05,7.344c-0.194,13.216,0.482,26.442-0.531,39.631c0.728-11.363,4.65-21.718,10.02-31.613
	c0.553-1.019,1.212-2.013,2.502-2.259c3.283-4.602,6.635-9.156,9.825-13.822c2.197-3.213,3.119-2.277,4.311,0.783
	c4.497,11.542,7.863,23.325,8.496,35.772c1.013,1.768,1.377,3.671,1.356,5.703c-0.137,13.219-2.548,25.954-7.987,38.047
	c-1.754,4.105-3.917,8.037-5.42,12.275c2.457-3.418,3.603-7.502,5.619-11.142c4.405-10.304,10.107-19.834,17.038-28.632
	C128.525,80.261,129.234,78.878,130.814,78.423z"/>
<path fill="#65B32F" d="M81.142,93.35c2.165,0.17,2.748,1.913,3.668,3.196c41.86,58.402,17.693,141.249-49.01,167.77
	c-1.426,0.567-3.899,3.256-4.915,0.191c-0.833-2.513-1.476-5.901,2.507-7.549c12.341-5.108,23.203-12.577,32.033-22.527
	c31.165-35.115,39.879-74.956,24.3-119.631c-1.546-4.433-4.11-8.387-6.845-12.152C80.758,99.727,80.175,96.792,81.142,93.35z"/>
<path fill="#67B32F" d="M33.902,89.613c16.968,3.618,31.791,11.169,45.109,22.318c9.322,7.803,11.794,17.981,13.061,29.07
	c0.409,3.58-0.655,4.277-4.125,3.272c-26.709-7.728-45.099-24.629-55.696-50.166C31.583,92.5,29.004,89.448,33.902,89.613z"/>
<path fill="#67B32F" d="M84.375,194.936c-1.284-0.471-2.399-0.811-3.457-1.279c-24.107-10.66-40.599-28.461-49.676-53.153
	c-0.474-1.289-1.785-2.894-0.557-4.14c1.238-1.256,2.865,0.064,4.185,0.483c23.055,7.318,40.856,21.165,52.53,42.553
	c1.833,3.358,0.969,11.889-1.513,14.554C85.479,194.39,84.86,194.628,84.375,194.936z"/>
<path fill="#67B32F" d="M140.666,99.378c-0.411,23.985-8.975,42.777-25.68,57.811c-1.242,1.118-2.592,3.348-4.496,2.267
	c-1.434-0.814-0.465-3.06-0.643-4.658c-0.385-3.465-0.179-7.095-1.16-10.374c-1.876-6.269-0.734-12.032,1.314-17.95
	c5.544-16.016,13.465-30.701,24.066-43.924c0.773-0.964,1.331-2.701,2.894-2.323c1.558,0.377,1.231,2.207,1.531,3.398
	C139.915,89.28,140.317,95.081,140.666,99.378z"/>
<path fill="#67B32F" d="M100.481,114.724c-4.069-8.338-8.526-15.492-13.109-22.599c-2.326-3.608-0.877-8.518-0.366-12.748
	c1.804-14.932,7.12-28.596,15.744-40.945c0.657-0.94,1.306-2.297,2.562-1.994c0.663,0.16,1.216,1.465,1.512,2.355
	c8.36,25.101,7.499,49.634-4.627,73.448C101.912,112.799,101.483,113.284,100.481,114.724z"/>
<path fill="#FCD041" d="M76.147,103.294c-4.272-2.735-7.719-4.948-11.174-7.149c-1.248-0.795-1.685-1.928-1.684-3.381
	c0.018-27.438,0.013-54.876,0.013-82.426c6.898,2.647,12.886,10.887,12.883,17.458c-0.01,23.139-0.025,46.278-0.038,69.417
	C76.146,98.969,76.147,100.725,76.147,103.294z"/>
<path fill="#67B32F" d="M149.731,140.287c0.066,5.709-1.263,10.439-2.77,15.093c-5.447,16.827-14.199,31.43-28.816,41.962
	c-3.66,2.637-7.7,4.567-12.082,5.728c-1.085,0.287-2.285,1.181-3.248,0.147c-0.957-1.029,0.211-2.145,0.364-3.234
	c2.937-20.863,17.656-33.834,31.732-47.189C139.435,148.503,143.949,144.143,149.731,140.287z"/>
<path fill="#FED341" d="M57.908,10.469c0.076,1.448,0.218,2.895,0.217,4.343c-0.007,24.127-0.104,48.255,0.017,72.382
	c0.021,4.164-0.641,5.222-4.876,3.342c-7.933-3.521-8.034-3.274-8.031-11.875c0.006-16.972,0.14-33.947-0.094-50.916
	c-0.06-4.351,1.08-7.561,4.335-10.451c2.572-2.284,4.581-5.202,6.84-7.839C56.846,9.792,57.377,10.131,57.908,10.469z"/>
<path fill="#66B32F" d="M40.82,55.317c0.006,4.661,0.001,9.322,0.008,13.982c0.005,2.927-1.183,3.191-3.262,1.474
	c-13.974-11.535-23.507-26.11-29.459-43.12c-0.695-1.986,0.02-2.835,2.203-2.331c10.309,2.375,19.925,6.388,28.831,12.097
	c1.643,1.053,1.69,2.708,1.68,4.415C40.796,46.328,40.813,50.822,40.82,55.317z"/>
<path fill="#FCD041" d="M31.665,214.998c7.191-6.279,14.389-11.317,24.301-9.959c5.547,0.76,11.283,0.083,16.932,0.17
	c2.387,0.037,5.384-0.508,6.05,2.814c0.457,2.279-4.123,6.942-6.604,6.959c-9.472,0.061-18.946,0.019-28.418,0.016
	C39.839,214.997,35.752,214.998,31.665,214.998z"/>
<path fill="#F9CE40" d="M30.267,220.207c14.056,0,27.016,0,40.088,0c-3.37,8.041-6.455,9.419-14.377,10.309
	C45.704,231.669,38.198,227.225,30.267,220.207z"/>
<path fill="#F6CA3F" d="M60.51,282.646c-5.332,0.005-10.668-0.126-15.994,0.057c-2.919,0.1-3.731-1.062-3.699-3.807
	c0.03-2.593,0.508-3.98,3.561-3.939c10.995,0.15,21.993,0.135,32.989,0.047c2.623-0.021,3.534,0.941,3.462,3.51
	c-0.067,2.368-0.06,4.266-3.326,4.172C71.843,282.524,66.175,282.641,60.51,282.646z"/>
<path fill="#FCD040" d="M76.15,243.627c0,8.764-0.006,16.364,0.005,23.965c0.002,1.605-0.193,2.685-2.285,3.018
	c-9.18,1.462-10.33,0.371-10.684-8.742c-0.195-5.032,0.689-8.922,5.327-11.684C70.995,248.705,72.984,246.395,76.15,243.627z"/>
<path fill="#F9CE40" d="M45.234,174.105c4.542,4.138,8.23,7.398,11.789,10.794c1.252,1.195,1.931,13.689,0.683,14.468
	c-3.298,2.059-7.086,0.899-10.629,0.797c-2.765-0.08-1.774-2.746-1.799-4.357C45.175,188.919,45.234,182.03,45.234,174.105z"/>
<path fill="#F5CA3E" d="M45.836,124.783c3.888,3.324,7.69,6.381,11.247,9.699c1.76,1.641,1.651,4.259,0.469,5.943
	c-0.994,1.416-2.58-0.46-3.874-0.961c-0.612-0.237-1.164-0.624-1.75-0.928C44.271,134.559,44.271,134.56,45.836,124.783z"/>
<path fill="#F4C83E" d="M51.705,270.592c-1.16-0.005-2.32,0.01-3.479-0.01c-1.143-0.02-2.524,0.182-2.827-1.336
	c-0.285-1.425-0.739-3.227,0.705-4.147c3.344-2.131,6.854-4.005,10.331-5.92c0.326-0.18,1.263-0.001,1.301,0.158
	c0.776,3.258,0.728,6.609,0.177,9.838c-0.38,2.226-2.709,1.192-4.222,1.407C53.042,270.674,52.368,270.597,51.705,270.592z"/>
<path fill="#F1C63D" d="M76.252,155.988c-4.421-3.674-7.778-6.56-11.246-9.304c-1.66-1.313-1.819-2.965-1.792-4.841
	c0.031-2.191,0.886-2.592,2.755-1.599c2.766,1.469,5.803,2.538,8.318,4.344C78.153,147.366,75.43,151.454,76.252,155.988z"/>
<path fill="#E8BF3A" d="M69.733,200.611c-2.08-1.225-6.17,1.947-6.439-2.961c-0.129-2.353-1.335-5.567,0.823-6.933
	c1.589-1.006,3.526,1.823,5.481,2.607c0.608,0.244,1.196,0.579,1.731,0.96c1.856,1.323,5.643,1.386,4.607,4.744
	C75.039,201.933,71.834,199.686,69.733,200.611z"/>
<path fill="#DDB537" d="M57.578,235.312c-3.143,4.112-6.519,6.204-9.674,8.536c-2.183,1.614-2.664,0.58-2.826-1.673
	c-0.493-6.85-0.291-7.148,6.776-7.11C53.446,235.074,55.037,235.198,57.578,235.312z"/>
</svg>
